<svg xmlns="http://www.w3.org/2000/svg" xmlns:xlink="http://www.w3.org/1999/xlink" width="256" zoomAndPan="magnify" viewBox="0 0 192 63.749997" height="85" preserveAspectRatio="xMidYMid meet" version="1.0"><defs><g/><clipPath id="id1"><path d="M 0.375 6.351562 L 48.933594 6.351562 L 48.933594 54.910156 L 0.375 54.910156 Z M 0.375 6.351562 " clip-rule="nonzero"/></clipPath></defs><g clip-path="url(#id1)"><path fill="#003781" d="M 28.355469 44.253906 L 28.355469 17.457031 C 28.355469 15.324219 27.601562 14.601562 25.535156 14.601562 L 19.277344 14.601562 L 19.277344 17.613281 L 19.652344 17.613281 C 21.078125 17.613281 21.355469 17.9375 21.355469 19.660156 L 21.355469 44.253906 Z M 31.445312 44.253906 L 38.390625 44.253906 L 38.390625 23.382812 C 38.390625 21.289062 37.585938 20.535156 35.546875 20.535156 L 31.445312 20.535156 Z M 18.289062 44.253906 L 18.289062 20.554688 L 14.171875 20.554688 C 12.132812 20.554688 11.335938 21.308594 11.335938 23.402344 L 11.335938 44.253906 Z M 44.964844 30.632812 C 44.964844 42.441406 36.496094 51.027344 24.863281 51.027344 C 13.234375 51.027344 4.742188 42.441406 4.742188 30.632812 C 4.742188 18.824219 13.226562 10.238281 24.863281 10.238281 C 36.5 10.238281 44.964844 18.875 44.964844 30.632812 M 49.078125 30.632812 C 49.078125 16.746094 38.71875 6.351562 24.863281 6.351562 C 11.011719 6.351562 0.640625 16.746094 0.640625 30.632812 C 0.640625 44.515625 11 54.910156 24.863281 54.910156 C 38.726562 54.910156 49.078125 44.550781 49.078125 30.632812 " fill-opacity="1" fill-rule="nonzero"/></g><g fill="#545454" fill-opacity="1"><g transform="translate(64.875033, 34.940308)"><g><path d="M 7.207031 -12.160156 C 6.035156 -12.160156 4.886719 -11.785156 4.089844 -10.878906 L 4.089844 -15.742188 L 0.640625 -15.742188 L 0.640625 0 L 4.089844 0 L 4.089844 -1.195312 C 4.90625 -0.175781 6.101562 0.15625 7.25 0.15625 C 11.03125 0.15625 13 -2.851562 13 -6.144531 C 13 -9.417969 11.097656 -12.160156 7.207031 -12.160156 Z M 6.832031 -3.183594 C 5.328125 -3.183594 4.089844 -4.464844 4.089844 -6.058594 C 4.089844 -7.648438 5.328125 -8.953125 6.832031 -8.953125 C 8.621094 -8.953125 9.507812 -7.515625 9.507812 -6.058594 C 9.507812 -4.621094 8.601562 -3.183594 6.832031 -3.183594 Z M 6.832031 -3.183594 "/></g></g></g><g fill="#545454" fill-opacity="1"><g transform="translate(79.263874, 34.940308)"><g><path d="M 0.488281 -14.59375 C 0.488281 -13.289062 1.546875 -12.644531 2.609375 -12.644531 C 3.625 -12.644531 4.664062 -13.289062 4.664062 -14.59375 C 4.664062 -15.960938 3.605469 -16.625 2.542969 -16.625 C 1.527344 -16.625 0.488281 -15.941406 0.488281 -14.59375 Z M 0.816406 -11.960938 L 4.355469 -11.960938 L 4.355469 0 L 0.816406 0 Z M 0.816406 -11.960938 "/></g></g></g><g fill="#545454" fill-opacity="1"><g transform="translate(85.408462, 34.940308)"><g><path d="M 4.023438 -10.765625 L 4.023438 -11.960938 L 0.507812 -11.960938 L 0.507812 0 L 4.199219 0 L 4.199219 -6.5 C 4.199219 -8.027344 5.4375 -8.910156 6.476562 -8.910156 C 7.429688 -8.910156 8.335938 -8.179688 8.335938 -6.566406 L 8.335938 0 L 11.871094 0 L 11.871094 -6.589844 C 11.894531 -9.574219 10.964844 -12.09375 7.5625 -12.136719 C 6.277344 -12.136719 4.863281 -11.828125 4.023438 -10.765625 Z M 4.023438 -10.765625 "/></g></g></g><g fill="#545454" fill-opacity="1"><g transform="translate(99.045819, 34.940308)"><g><path d="M 6.101562 -12.160156 C 2.210938 -12.160156 0.308594 -9.417969 0.308594 -6.144531 C 0.308594 -2.851562 2.277344 0.15625 6.058594 0.15625 C 7.207031 0.15625 8.378906 -0.175781 9.199219 -1.195312 L 9.199219 0 L 12.667969 0 L 12.667969 -15.585938 L 9.199219 -15.585938 L 9.199219 -10.878906 C 8.402344 -11.785156 7.273438 -12.160156 6.101562 -12.160156 Z M 6.476562 -3.183594 C 4.710938 -3.183594 3.804688 -4.621094 3.804688 -6.058594 C 3.804688 -7.515625 4.6875 -8.953125 6.476562 -8.953125 C 7.980469 -8.953125 9.199219 -7.648438 9.199219 -6.058594 C 9.199219 -4.464844 7.980469 -3.183594 6.476562 -3.183594 Z M 6.476562 -3.183594 "/></g></g></g><g fill="#545454" fill-opacity="1"><g transform="translate(113.478866, 34.940308)"><g><path d="M 12.644531 -6.011719 C 12.644531 -10.105469 9.550781 -12.136719 6.476562 -12.136719 C 3.359375 -12.136719 0.289062 -10.105469 0.289062 -6.011719 C 0.289062 -1.921875 3.359375 0.132812 6.457031 0.132812 C 8.933594 0.132812 11.386719 -1.171875 12.292969 -3.78125 L 8.511719 -3.78125 C 8.003906 -3.226562 7.273438 -2.960938 6.5 -2.960938 C 5.4375 -2.984375 4.355469 -3.539062 3.933594 -4.644531 L 12.515625 -4.644531 C 12.601562 -5.085938 12.644531 -5.527344 12.644531 -6.011719 Z M 8.84375 -7.363281 L 4.066406 -7.363281 C 4.421875 -8.535156 5.371094 -9.109375 6.410156 -9.109375 C 7.539062 -9.109375 8.511719 -8.554688 8.84375 -7.363281 Z M 8.84375 -7.363281 "/></g></g></g><g fill="#545454" fill-opacity="1"><g transform="translate(127.845601, 34.940308)"><g><path d="M 3.933594 -11.164062 L 3.804688 -11.960938 L 0.664062 -11.960938 L 0.664062 0 L 4.132812 0 L 4.132812 -6.632812 C 4.132812 -8.246094 5.417969 -8.910156 6.675781 -8.933594 C 7.074219 -8.933594 7.496094 -8.867188 7.847656 -8.753906 L 7.894531 -12.027344 C 7.429688 -12.136719 6.964844 -12.203125 6.542969 -12.203125 C 5.570312 -12.203125 4.710938 -11.894531 3.933594 -11.164062 Z M 3.933594 -11.164062 "/></g></g></g><g fill="#545454" fill-opacity="1"><g transform="translate(137.128757, 34.940308)"><g><path d="M 4.046875 -10.765625 L 4.046875 -15.585938 L 0.53125 -15.585938 L 0.53125 0 L 4.222656 0 L 4.222656 -6.5 C 4.222656 -7.9375 5.484375 -8.84375 6.523438 -8.84375 C 7.472656 -8.84375 8.355469 -8.160156 8.355469 -6.566406 L 8.355469 0 L 11.871094 0 L 11.871094 -6.589844 C 11.917969 -9.574219 10.964844 -12.09375 7.5625 -12.136719 C 6.277344 -12.136719 4.90625 -11.828125 4.046875 -10.765625 Z M 4.046875 -10.765625 "/></g></g></g><g fill="#545454" fill-opacity="1"><g transform="translate(150.766115, 34.940308)"><g><path d="M 8.289062 -1.214844 L 8.289062 0 L 11.804688 0 L 11.804688 -11.960938 L 8.113281 -11.960938 L 8.113281 -5.460938 C 8.113281 -3.867188 7.03125 -2.984375 5.992188 -2.984375 C 5.039062 -2.984375 4.113281 -3.738281 4.113281 -5.394531 L 4.113281 -11.960938 L 0.597656 -11.960938 L 0.597656 -5.371094 C 0.574219 -2.367188 1.527344 0.15625 5.039062 0.15625 C 6.277344 0.15625 7.472656 -0.175781 8.289062 -1.214844 Z M 8.289062 -1.214844 "/></g></g></g><g fill="#545454" fill-opacity="1"><g transform="translate(164.337165, 34.940308)"><g><path d="M 7.207031 -12.160156 C 6.035156 -12.160156 4.886719 -11.785156 4.089844 -10.878906 L 4.089844 -15.742188 L 0.640625 -15.742188 L 0.640625 0 L 4.089844 0 L 4.089844 -1.195312 C 4.90625 -0.175781 6.101562 0.15625 7.25 0.15625 C 11.03125 0.15625 13 -2.851562 13 -6.144531 C 13 -9.417969 11.097656 -12.160156 7.207031 -12.160156 Z M 6.832031 -3.183594 C 5.328125 -3.183594 4.089844 -4.464844 4.089844 -6.058594 C 4.089844 -7.648438 5.328125 -8.953125 6.832031 -8.953125 C 8.621094 -8.953125 9.507812 -7.515625 9.507812 -6.058594 C 9.507812 -4.621094 8.601562 -3.183594 6.832031 -3.183594 Z M 6.832031 -3.183594 "/></g></g></g><g fill="#545454" fill-opacity="1"><g transform="translate(83.635668, 44.924324)"><g><path d="M 2.828125 -1 C 2.828125 -0.863281 2.800781 -0.734375 2.75 -0.609375 C 2.695312 -0.492188 2.625 -0.390625 2.53125 -0.296875 C 2.445312 -0.203125 2.34375 -0.128906 2.21875 -0.078125 C 2.09375 -0.0234375 1.960938 0 1.828125 0 L 0.28125 0 L 0.28125 -3.59375 L 1.6875 -3.59375 C 1.8125 -3.59375 1.925781 -3.566406 2.03125 -3.515625 C 2.144531 -3.472656 2.238281 -3.410156 2.3125 -3.328125 C 2.394531 -3.253906 2.457031 -3.160156 2.5 -3.046875 C 2.550781 -2.941406 2.578125 -2.828125 2.578125 -2.703125 C 2.578125 -2.546875 2.550781 -2.398438 2.5 -2.265625 C 2.457031 -2.140625 2.378906 -2.035156 2.265625 -1.953125 C 2.453125 -1.878906 2.59375 -1.753906 2.6875 -1.578125 C 2.78125 -1.410156 2.828125 -1.21875 2.828125 -1 Z M 0.8125 -2.140625 C 0.945312 -2.140625 1.070312 -2.140625 1.1875 -2.140625 L 1.703125 -2.140625 C 1.828125 -2.140625 1.929688 -2.1875 2.015625 -2.28125 C 2.109375 -2.375 2.15625 -2.488281 2.15625 -2.625 C 2.15625 -2.769531 2.109375 -2.890625 2.015625 -2.984375 C 1.929688 -3.078125 1.828125 -3.125 1.703125 -3.125 L 0.8125 -3.125 Z M 0.8125 -0.5 C 0.832031 -0.488281 0.882812 -0.484375 0.96875 -0.484375 L 1.828125 -0.484375 C 1.890625 -0.484375 1.953125 -0.5 2.015625 -0.53125 C 2.085938 -0.5625 2.144531 -0.601562 2.1875 -0.65625 C 2.238281 -0.707031 2.273438 -0.769531 2.296875 -0.84375 C 2.328125 -0.914062 2.34375 -0.992188 2.34375 -1.078125 C 2.34375 -1.148438 2.328125 -1.222656 2.296875 -1.296875 C 2.273438 -1.367188 2.238281 -1.429688 2.1875 -1.484375 C 2.144531 -1.535156 2.085938 -1.578125 2.015625 -1.609375 C 1.953125 -1.640625 1.890625 -1.65625 1.828125 -1.65625 L 0.8125 -1.65625 Z M 0.8125 -0.5 "/></g></g></g><g fill="#545454" fill-opacity="1"><g transform="translate(87.301203, 44.924324)"><g><path d="M 1.3125 -1.6875 L 0.046875 -3.59375 L 0.6875 -3.59375 L 1.578125 -2.25 L 2.484375 -3.59375 L 3.125 -3.59375 L 1.84375 -1.6875 L 1.84375 0 L 1.3125 0 Z M 1.3125 -1.6875 "/></g></g></g><g fill="#545454" fill-opacity="1"><g transform="translate(91.103809, 44.924324)"><g/></g></g><g fill="#545454" fill-opacity="1"><g transform="translate(93.048263, 44.924324)"><g><path d="M 0.640625 0 L 0.0625 0 L 1.546875 -3.59375 L 2.140625 -3.59375 L 3.640625 0 L 3.0625 0 L 2.59375 -1.125 L 1.109375 -1.125 Z M 1.3125 -1.609375 L 2.390625 -1.609375 L 1.84375 -2.921875 Z M 1.3125 -1.609375 "/></g></g></g><g fill="#545454" fill-opacity="1"><g transform="translate(97.383947, 44.924324)"><g><path d="M 0.296875 0 L 0.296875 -3.59375 L 0.828125 -3.59375 L 0.828125 -0.5 L 2.5 -0.5 L 2.5 0 Z M 0.296875 0 "/></g></g></g><g fill="#545454" fill-opacity="1"><g transform="translate(100.607784, 44.924324)"><g><path d="M 0.296875 0 L 0.296875 -3.59375 L 0.828125 -3.59375 L 0.828125 -0.5 L 2.5 -0.5 L 2.5 0 Z M 0.296875 0 "/></g></g></g><g fill="#545454" fill-opacity="1"><g transform="translate(103.831621, 44.924324)"><g><path d="M 1.265625 -3.15625 L 1.265625 -0.4375 L 1.515625 -0.4375 L 1.515625 0 L 0.46875 0 L 0.46875 -0.4375 L 0.734375 -0.4375 L 0.734375 -3.15625 L 0.46875 -3.15625 L 0.46875 -3.59375 L 1.515625 -3.59375 L 1.515625 -3.15625 Z M 1.265625 -3.15625 "/></g></g></g><g fill="#545454" fill-opacity="1"><g transform="translate(106.446231, 44.924324)"><g><path d="M 0.640625 0 L 0.0625 0 L 1.546875 -3.59375 L 2.140625 -3.59375 L 3.640625 0 L 3.0625 0 L 2.59375 -1.125 L 1.109375 -1.125 Z M 1.3125 -1.609375 L 2.390625 -1.609375 L 1.84375 -2.921875 Z M 1.3125 -1.609375 "/></g></g></g><g fill="#545454" fill-opacity="1"><g transform="translate(110.781913, 44.924324)"><g><path d="M 3.390625 -3.59375 L 3.390625 0 L 2.84375 0 L 0.84375 -2.765625 L 0.84375 0 L 0.28125 0 L 0.28125 -3.59375 L 0.84375 -3.59375 L 2.859375 -0.828125 L 2.859375 -3.59375 Z M 3.390625 -3.59375 "/></g></g></g><g fill="#545454" fill-opacity="1"><g transform="translate(115.082057, 44.924324)"><g><path d="M 0.171875 0 L 0.171875 -0.4375 L 2.0625 -3.125 L 0.34375 -3.125 L 0.34375 -3.59375 L 2.703125 -3.59375 L 2.703125 -3.171875 L 0.84375 -0.5 L 2.8125 -0.5 L 2.8125 0 Z M 0.171875 0 "/></g></g></g><g fill="#545454" fill-opacity="1"><g transform="translate(118.772974, 44.924324)"><g/></g></g><g fill="#545454" fill-opacity="1"><g transform="translate(120.717427, 44.924324)"><g><path d="M 1 -3.125 L 0.03125 -3.125 L 0.03125 -3.59375 L 2.515625 -3.59375 L 2.515625 -3.125 L 1.53125 -3.125 L 1.53125 0 L 1 0 Z M 1 -3.125 "/></g></g></g><g fill="#545454" fill-opacity="1"><g transform="translate(123.986956, 44.924324)"><g><path d="M 2.484375 -3.59375 L 2.484375 -3.125 L 0.8125 -3.125 L 0.8125 -2.140625 L 2.296875 -2.140625 L 2.296875 -1.65625 L 0.8125 -1.65625 L 0.8125 -0.5 L 2.484375 -0.5 L 2.484375 0 L 0.28125 0 L 0.28125 -3.59375 Z M 2.484375 -3.59375 "/></g></g></g><g fill="#545454" fill-opacity="1"><g transform="translate(127.393562, 44.924324)"><g><path d="M 1.984375 -0.4375 C 2.179688 -0.4375 2.363281 -0.484375 2.53125 -0.578125 C 2.695312 -0.671875 2.835938 -0.796875 2.953125 -0.953125 L 3.328125 -0.609375 C 3.160156 -0.410156 2.957031 -0.25 2.71875 -0.125 C 2.488281 -0.0078125 2.242188 0.046875 1.984375 0.046875 C 1.734375 0.046875 1.5 0 1.28125 -0.09375 C 1.070312 -0.195312 0.882812 -0.332031 0.71875 -0.5 C 0.5625 -0.664062 0.4375 -0.859375 0.34375 -1.078125 C 0.25 -1.304688 0.203125 -1.546875 0.203125 -1.796875 C 0.203125 -2.046875 0.25 -2.28125 0.34375 -2.5 C 0.4375 -2.726562 0.5625 -2.925781 0.71875 -3.09375 C 0.882812 -3.257812 1.070312 -3.390625 1.28125 -3.484375 C 1.5 -3.585938 1.734375 -3.640625 1.984375 -3.640625 C 2.210938 -3.640625 2.425781 -3.59375 2.625 -3.5 C 2.820312 -3.414062 3 -3.300781 3.15625 -3.15625 L 2.84375 -2.75 C 2.738281 -2.875 2.609375 -2.972656 2.453125 -3.046875 C 2.304688 -3.117188 2.148438 -3.15625 1.984375 -3.15625 C 1.804688 -3.15625 1.640625 -3.117188 1.484375 -3.046875 C 1.335938 -2.972656 1.207031 -2.875 1.09375 -2.75 C 0.988281 -2.625 0.898438 -2.476562 0.828125 -2.3125 C 0.765625 -2.15625 0.734375 -1.984375 0.734375 -1.796875 C 0.734375 -1.609375 0.765625 -1.429688 0.828125 -1.265625 C 0.898438 -1.109375 0.988281 -0.96875 1.09375 -0.84375 C 1.207031 -0.71875 1.335938 -0.617188 1.484375 -0.546875 C 1.640625 -0.472656 1.804688 -0.4375 1.984375 -0.4375 Z M 1.984375 -0.4375 "/></g></g></g><g fill="#545454" fill-opacity="1"><g transform="translate(131.495706, 44.924324)"><g><path d="M 2.828125 -3.59375 L 3.359375 -3.59375 L 3.359375 0 L 2.828125 0 L 2.828125 -1.65625 L 0.8125 -1.65625 L 0.8125 0 L 0.28125 0 L 0.28125 -3.59375 L 0.8125 -3.59375 L 0.8125 -2.140625 L 2.828125 -2.140625 Z M 2.828125 -3.59375 "/></g></g></g><g fill="#545454" fill-opacity="1"><g transform="translate(135.785696, 44.924324)"><g><path d="M 3.390625 -3.59375 L 3.390625 0 L 2.84375 0 L 0.84375 -2.765625 L 0.84375 0 L 0.28125 0 L 0.28125 -3.59375 L 0.84375 -3.59375 L 2.859375 -0.828125 L 2.859375 -3.59375 Z M 3.390625 -3.59375 "/></g></g></g><g fill="#545454" fill-opacity="1"><g transform="translate(140.085843, 44.924324)"><g><path d="M 1.953125 -3.65625 C 2.203125 -3.65625 2.429688 -3.601562 2.640625 -3.5 C 2.859375 -3.40625 3.046875 -3.273438 3.203125 -3.109375 C 3.367188 -2.941406 3.5 -2.742188 3.59375 -2.515625 C 3.6875 -2.285156 3.734375 -2.046875 3.734375 -1.796875 C 3.734375 -1.546875 3.6875 -1.304688 3.59375 -1.078125 C 3.5 -0.859375 3.367188 -0.664062 3.203125 -0.5 C 3.046875 -0.332031 2.859375 -0.195312 2.640625 -0.09375 C 2.421875 0 2.191406 0.046875 1.953125 0.046875 C 1.703125 0.046875 1.46875 0 1.25 -0.09375 C 1.039062 -0.195312 0.851562 -0.332031 0.6875 -0.5 C 0.53125 -0.664062 0.40625 -0.859375 0.3125 -1.078125 C 0.21875 -1.304688 0.171875 -1.546875 0.171875 -1.796875 C 0.171875 -2.046875 0.21875 -2.285156 0.3125 -2.515625 C 0.40625 -2.742188 0.53125 -2.941406 0.6875 -3.109375 C 0.851562 -3.273438 1.046875 -3.40625 1.265625 -3.5 C 1.484375 -3.601562 1.710938 -3.65625 1.953125 -3.65625 Z M 1.953125 -0.453125 C 2.128906 -0.453125 2.289062 -0.488281 2.4375 -0.5625 C 2.59375 -0.632812 2.722656 -0.726562 2.828125 -0.84375 C 2.941406 -0.96875 3.03125 -1.109375 3.09375 -1.265625 C 3.15625 -1.429688 3.1875 -1.609375 3.1875 -1.796875 C 3.1875 -1.984375 3.15625 -2.15625 3.09375 -2.3125 C 3.03125 -2.476562 2.941406 -2.625 2.828125 -2.75 C 2.722656 -2.875 2.59375 -2.96875 2.4375 -3.03125 C 2.289062 -3.101562 2.128906 -3.140625 1.953125 -3.140625 C 1.785156 -3.140625 1.625 -3.101562 1.46875 -3.03125 C 1.320312 -2.96875 1.191406 -2.875 1.078125 -2.75 C 0.960938 -2.625 0.867188 -2.476562 0.796875 -2.3125 C 0.734375 -2.15625 0.703125 -1.984375 0.703125 -1.796875 C 0.703125 -1.609375 0.734375 -1.429688 0.796875 -1.265625 C 0.867188 -1.109375 0.960938 -0.96875 1.078125 -0.84375 C 1.191406 -0.726562 1.320312 -0.632812 1.46875 -0.5625 C 1.625 -0.488281 1.785156 -0.453125 1.953125 -0.453125 Z M 1.953125 -0.453125 "/></g></g></g><g fill="#545454" fill-opacity="1"><g transform="translate(144.599225, 44.924324)"><g><path d="M 0.296875 0 L 0.296875 -3.59375 L 0.828125 -3.59375 L 0.828125 -0.5 L 2.5 -0.5 L 2.5 0 Z M 0.296875 0 "/></g></g></g><g fill="#545454" fill-opacity="1"><g transform="translate(147.823064, 44.924324)"><g><path d="M 1.953125 -3.65625 C 2.203125 -3.65625 2.429688 -3.601562 2.640625 -3.5 C 2.859375 -3.40625 3.046875 -3.273438 3.203125 -3.109375 C 3.367188 -2.941406 3.5 -2.742188 3.59375 -2.515625 C 3.6875 -2.285156 3.734375 -2.046875 3.734375 -1.796875 C 3.734375 -1.546875 3.6875 -1.304688 3.59375 -1.078125 C 3.5 -0.859375 3.367188 -0.664062 3.203125 -0.5 C 3.046875 -0.332031 2.859375 -0.195312 2.640625 -0.09375 C 2.421875 0 2.191406 0.046875 1.953125 0.046875 C 1.703125 0.046875 1.46875 0 1.25 -0.09375 C 1.039062 -0.195312 0.851562 -0.332031 0.6875 -0.5 C 0.53125 -0.664062 0.40625 -0.859375 0.3125 -1.078125 C 0.21875 -1.304688 0.171875 -1.546875 0.171875 -1.796875 C 0.171875 -2.046875 0.21875 -2.285156 0.3125 -2.515625 C 0.40625 -2.742188 0.53125 -2.941406 0.6875 -3.109375 C 0.851562 -3.273438 1.046875 -3.40625 1.265625 -3.5 C 1.484375 -3.601562 1.710938 -3.65625 1.953125 -3.65625 Z M 1.953125 -0.453125 C 2.128906 -0.453125 2.289062 -0.488281 2.4375 -0.5625 C 2.59375 -0.632812 2.722656 -0.726562 2.828125 -0.84375 C 2.941406 -0.96875 3.03125 -1.109375 3.09375 -1.265625 C 3.15625 -1.429688 3.1875 -1.609375 3.1875 -1.796875 C 3.1875 -1.984375 3.15625 -2.15625 3.09375 -2.3125 C 3.03125 -2.476562 2.941406 -2.625 2.828125 -2.75 C 2.722656 -2.875 2.59375 -2.96875 2.4375 -3.03125 C 2.289062 -3.101562 2.128906 -3.140625 1.953125 -3.140625 C 1.785156 -3.140625 1.625 -3.101562 1.46875 -3.03125 C 1.320312 -2.96875 1.191406 -2.875 1.078125 -2.75 C 0.960938 -2.625 0.867188 -2.476562 0.796875 -2.3125 C 0.734375 -2.15625 0.703125 -1.984375 0.703125 -1.796875 C 0.703125 -1.609375 0.734375 -1.429688 0.796875 -1.265625 C 0.867188 -1.109375 0.960938 -0.96875 1.078125 -0.84375 C 1.191406 -0.726562 1.320312 -0.632812 1.46875 -0.5625 C 1.625 -0.488281 1.785156 -0.453125 1.953125 -0.453125 Z M 1.953125 -0.453125 "/></g></g></g><g fill="#545454" fill-opacity="1"><g transform="translate(152.336446, 44.924324)"><g><path d="M 2.296875 -1.921875 L 3.28125 -1.921875 L 3.28125 -0.609375 C 3.113281 -0.410156 2.914062 -0.25 2.6875 -0.125 C 2.457031 -0.0078125 2.207031 0.046875 1.9375 0.046875 C 1.6875 0.046875 1.453125 0 1.234375 -0.09375 C 1.023438 -0.195312 0.835938 -0.332031 0.671875 -0.5 C 0.515625 -0.664062 0.390625 -0.859375 0.296875 -1.078125 C 0.203125 -1.304688 0.15625 -1.546875 0.15625 -1.796875 C 0.15625 -2.046875 0.203125 -2.28125 0.296875 -2.5 C 0.390625 -2.726562 0.515625 -2.925781 0.671875 -3.09375 C 0.835938 -3.257812 1.023438 -3.390625 1.234375 -3.484375 C 1.453125 -3.585938 1.6875 -3.640625 1.9375 -3.640625 C 2.15625 -3.640625 2.363281 -3.59375 2.5625 -3.5 C 2.769531 -3.414062 2.953125 -3.304688 3.109375 -3.171875 L 2.796875 -2.765625 C 2.679688 -2.878906 2.550781 -2.972656 2.40625 -3.046875 C 2.257812 -3.117188 2.101562 -3.15625 1.9375 -3.15625 C 1.757812 -3.15625 1.59375 -3.117188 1.4375 -3.046875 C 1.289062 -2.972656 1.160156 -2.875 1.046875 -2.75 C 0.941406 -2.625 0.859375 -2.476562 0.796875 -2.3125 C 0.734375 -2.15625 0.703125 -1.984375 0.703125 -1.796875 C 0.703125 -1.609375 0.734375 -1.429688 0.796875 -1.265625 C 0.859375 -1.109375 0.941406 -0.96875 1.046875 -0.84375 C 1.160156 -0.71875 1.289062 -0.617188 1.4375 -0.546875 C 1.59375 -0.472656 1.757812 -0.4375 1.9375 -0.4375 C 2.09375 -0.4375 2.238281 -0.46875 2.375 -0.53125 C 2.519531 -0.59375 2.644531 -0.675781 2.75 -0.78125 L 2.75 -1.4375 L 2.296875 -1.4375 Z M 2.296875 -1.921875 "/></g></g></g><g fill="#545454" fill-opacity="1"><g transform="translate(156.560443, 44.924324)"><g><path d="M 1.3125 -1.6875 L 0.046875 -3.59375 L 0.6875 -3.59375 L 1.578125 -2.25 L 2.484375 -3.59375 L 3.125 -3.59375 L 1.84375 -1.6875 L 1.84375 0 L 1.3125 0 Z M 1.3125 -1.6875 "/></g></g></g></svg>